<svg xmlns="http://www.w3.org/2000/svg" viewBox="0 0 32 32">
  <path d="M16 2 L28 7 L28 17 C28 23.5 22.5 29 16 30 C9.5 29 4 23.5 4 17 L4 7 Z" fill="#10B981" />
  <path d="M16 4 L26 8.5 L26 17 C26 22.5 21.5 27.5 16 28.5 C10.5 27.5 6 22.5 6 17 L6 8.5 Z" fill="#064E3B" />
  <circle cx="16" cy="16" r="5" fill="none" stroke="#10B981" stroke-width="1.5" />
  <line x1="16" y1="8" x2="16" y2="11" stroke="#10B981" stroke-width="1.5" stroke-linecap="round" />
  <line x1="16" y1="21" x2="16" y2="24" stroke="#10B981" stroke-width="1.5" stroke-linecap="round" />
  <line x1="8" y1="16" x2="11" y2="16" stroke="#10B981" stroke-width="1.5" stroke-linecap="round" />
  <line x1="21" y1="16" x2="24" y2="16" stroke="#10B981" stroke-width="1.5" stroke-linecap="round" />
  <circle cx="16" cy="16" r="1.5" fill="#10B981" />
</svg>
